#!OML:ASF G:\JayActor3\Patient Classification 1\Patient 1\Session 6\male.ASF
:FULLY-SPECIFIED
:DEGREES
1784
root 6.97317 16.3335 -1.07563 -184.939 -73.0618 180.131
lowerback 3.68163 -0.694164 3.96918
upperback -0.265164 -0.743875 2.77458
thorax -2.35126 -0.428724 0.672246
lowerneck -4.592 -2.44618 -2.13023
upperneck 23.7126 -0.525084 -20.2722
head 8.0333 -2.96098 -6.70329
rclavicle -1.59028e-015 1.11319e-014
rhumerus -27.3746 22.8339 -95.5013
rradius 121.146
rwrist -83.8768
rhand -22.5822 2.00181
rfingers 7.12502
rthumb 3.84652 -27.9432
lclavicle -1.59028e-015 1.11319e-014
lhumerus -52.6572 -15.8181 92.4085
lradius 39.5558
lwrist 23.9745
lhand -9.50078 3.3188
lfingers 7.12502
lthumb 16.4643 32.6402
rfemur -10.6032 15.4478 14.3664
rtibia 35.1747
rfoot -19.5008 -3.14787
rtoes -0.516808
lfemur 8.42237 7.88994 -15.1109
ltibia 13.8399
lfoot -16.9392 9.99288
ltoes -3.33826
1785
root 6.96769 16.3328 -1.04474 -185.102 -72.7671 180.293
lowerback 3.64696 -0.676893 3.90846
upperback -0.280887 -0.72444 2.75308
thorax -2.34713 -0.418069 0.682521
lowerneck -4.59507 -2.42383 -2.12426
upperneck 23.7036 -0.496198 -20.2956
head 8.03382 -2.95094 -6.71089
rclavicle -2.83268e-014 6.36111e-015
rhumerus -27.3903 22.8251 -95.5069
rradius 121.141
rwrist -83.8691
rhand -22.5998 2.00755
rfingers 7.12502
rthumb 3.82959 -27.9378
lclavicle -2.83268e-014 6.36111e-015
lhumerus -52.6696 -15.8302 92.4167
lradius 39.5579
lwrist 23.9804
lhand -9.56285 3.26328
lfingers 7.12502
lthumb 16.4046 32.5896
rfemur -10.6569 15.5373 14.2997
rtibia 35.111
rfoot -19.3836 -3.00946
rtoes -0.505499
lfemur 8.40651 8.07773 -15.155
ltibia 13.977
lfoot -17.0834 10.0562
ltoes -3.23916
1786
root 6.96249 16.3322 -1.0147 -185.252 -72.4746 180.449
lowerback 3.61028 -0.659224 3.8431
upperback -0.301268 -0.704512 2.73351
thorax -2.34661 -0.407176 0.697391
lowerneck -4.60044 -2.40175 -2.11752
upperneck 23.7006 -0.466586 -20.3221
head 8.03685 -2.94149 -6.72028
rclavicle 5.06901e-015 -3.18055e-015
rhumerus -27.4113 22.8163 -95.5114
rradius 121.134
rwrist -83.8723
rhand -22.6191 2.00547
rfingers 7.12502
rthumb 3.81091 -27.9402
lclavicle 5.06901e-015 -3.18055e-015
lhumerus -52.6941 -15.8334 92.4263
lradius 39.5613
lwrist 23.9759
lhand -9.63613 3.21614
lfingers 7.12502
lthumb 16.334 32.5483
rfemur -10.7204 15.613 14.2311
rtibia 35.0473
rfoot -19.2573 -2.85467
rtoes -0.476346
lfemur 8.38015 8.26004 -15.1985
ltibia 14.1156
lfoot -17.2254 10.1189
ltoes -3.12768
1787
root 6.95783 16.332 -0.985464 -185.422 -72.1813 180.636
lowerback 3.56547 -0.63996 3.78879
upperback -0.322688 -0.682456 2.71566
thorax -2.3427 -0.395363 0.707672
lowerneck -4.61493 -2.38061 -2.10752
upperneck 23.7037 -0.436787 -20.3482
head 8.04369 -2.93239 -6.73088
rclavicle 8.24956e-015 -2.14687e-014
rhumerus -27.4277 22.8071 -95.5178
rradius 121.123
rwrist -83.877
rhand -22.6424 2.0054
rfingers 7.12502
rthumb 3.78842 -27.9407
lclavicle 8.24956e-015 -2.14687e-014
lhumerus -52.7204 -15.8385 92.4324
lradius 39.5662
lwrist 23.9659
lhand -9.67383 3.2021
lfingers 7.12502
lthumb 16.2977 32.5372
rfemur -10.7988 15.6868 14.1747
rtibia 34.9824
rfoot -19.1207 -2.69743
rtoes -0.434118
lfemur 8.33663 8.43645 -15.2292
ltibia 14.2572
lfoot -17.3626 10.1856
ltoes -3.02159
1788
root 6.95365 16.3321 -0.957047 -185.605 -71.8913 180.847
lowerback 3.51615 -0.619318 3.74512
upperback -0.348077 -0.658204 2.69849
thorax -2.34045 -0.382659 0.712598
lowerneck -4.64002 -2.36101 -2.09112
upperneck 23.7197 -0.406588 -20.378
head 8.05687 -2.92438 -6.74529
rclavicle -3.17062e-014 -3.97569e-015
rhumerus -27.4471 22.7932 -95.5293
rradius 121.112
rwrist -83.8832
rhand -22.6648 2.00663
rfingers 7.12502
rthumb 3.7668 -27.9398
lclavicle -3.17062e-014 -3.97569e-015
lhumerus -52.752 -15.8477 92.4363
lradius 39.5709
lwrist 23.9485
lhand -9.6658 3.22093
lfingers 7.12502
lthumb 16.3055 32.5554
rfemur -10.8893 15.7494 14.1283
rtibia 34.9158
rfoot -18.9733 -2.53663
rtoes -0.381272
lfemur 8.27778 8.60208 -15.2499
ltibia 14.4019
lfoot -17.499 10.2557
ltoes -2.91262
1789
root 6.94974 16.3324 -0.929408 -185.79 -71.6057 181.064
lowerback 3.46123 -0.597642 3.71157
upperback -0.372571 -0.632513 2.67788
thorax -2.33428 -0.369317 0.708197
lowerneck -4.66596 -2.34378 -2.07123
upperneck 23.7354 -0.379727 -20.4081
head 8.06966 -2.91748 -6.76056
rclavicle 6.33129e-014 3.18055e-014
rhumerus -27.4658 22.7751 -95.5487
rradius 121.103
rwrist -83.8841
rhand -22.6838 2.00544
rfingers 7.12502
rthumb 3.74841 -27.9413
lclavicle 6.33129e-014 3.18055e-014
lhumerus -52.7821 -15.8684 92.4366
lradius 39.5748
lwrist 23.937
lhand -9.64532 3.25685
lfingers 7.12502
lthumb 16.3252 32.5897
rfemur -10.9835 15.7997 14.0876
rtibia 34.8472
rfoot -18.8207 -2.37209
rtoes -0.311778
lfemur 8.21323 8.76257 -15.2643
ltibia 14.5477
lfoot -17.6362 10.3216
ltoes -2.79834
1790
root 6.94624 16.3328 -0.902522 -185.975 -71.326 181.284
lowerback 3.41306 -0.574934 3.68173
upperback -0.401704 -0.60468 2.65782
thorax -2.33669 -0.355093 0.702353
lowerneck -4.68491 -2.32889 -2.05734
upperneck 23.748 -0.356941 -20.4362
head 8.07975 -2.91232 -6.77386
rclavicle -2.70347e-014 -1.19271e-014
rhumerus -27.4923 22.753 -95.5728
rradius 121.098
rwrist -83.8848
rhand -22.6985 2.00262
rfingers 7.12502
rthumb 3.73425 -27.9444
lclavicle -2.70347e-014 -1.19271e-014
lhumerus -52.814 -15.8953 92.44
lradius 39.5732
lwrist 23.9309
lhand -9.62034 3.30408
lfingers 7.12502
lthumb 16.3492 32.635
rfemur -11.0792 15.8472 14.0537
rtibia 34.7779
rfoot -18.6698 -2.21565
rtoes -0.223684
lfemur 8.14685 8.93036 -15.2697
ltibia 14.6875
lfoot -17.765 10.3743
ltoes -2.69081
1791
root 6.94301 16.3331 -0.87623 -186.156 -71.0531 181.495
lowerback 3.37281 -0.552277 3.65447
upperback -0.429386 -0.576421 2.637
thorax -2.34209 -0.340718 0.694374
lowerneck -4.69829 -2.3156 -2.04938
upperneck 23.7496 -0.337767 -20.4613
head 8.08479 -2.9078 -6.78419
rclavicle -4.65156e-014 3.97569e-015
rhumerus -27.5176 22.7315 -95.5985
rradius 121.096
rwrist -83.8809
rhand -22.7067 2.00179
rfingers 7.12502
rthumb 3.72634 -27.9454
lclavicle -4.65156e-014 3.97569e-015
lhumerus -52.8394 -15.9233 92.4413
lradius 39.5661
lwrist 23.9266
lhand -9.58705 3.3584
lfingers 7.12502
lthumb 16.3813 32.6866
rfemur -11.168 15.8884 14.0234
rtibia 34.7088
rfoot -18.5262 -2.06697
rtoes -0.129506
lfemur 8.08846 9.11691 -15.2668
ltibia 14.8177
lfoot -17.88 10.4057
ltoes -2.61101
1792
root 6.94005 16.3336 -0.850572 -186.309 -70.79 181.671
lowerback 3.33952 -0.530048 3.62124
upperback -0.455328 -0.548592 2.61291
thorax -2.34959 -0.326455 0.686474
lowerneck -4.6997 -2.30478 -2.04868
upperneck 23.7333 -0.32502 -20.4813
head 8.08091 -2.90426 -6.78992
rclavicle 2.88238e-015 8.74653e-015
rhumerus -27.5435 22.71 -95.6266
rradius 121.097
rwrist -83.8732
rhand -22.709 2.00377
rfingers 7.12502
rthumb 3.72412 -27.9434
lclavicle 2.88238e-015 8.74653e-015
lhumerus -52.8605 -15.9496 92.4376
lradius 39.5565
lwrist 23.9242
lhand -9.55018 3.40926
lfingers 7.12502
lthumb 16.4168 32.7346
rfemur -11.2485 15.9242 13.9874
rtibia 34.6411
rfoot -18.3925 -1.92979
rtoes -0.0480747
lfemur 8.03993 9.32235 -15.2651
ltibia 14.9353
lfoot -17.9801 10.4151
ltoes -2.5518
1793
root 6.93732 16.3338 -0.82543 -186.444 -70.5373 181.821
lowerback 3.31212 -0.508718 3.58479
upperback -0.475481 -0.521984 2.58683
thorax -2.35444 -0.312672 0.678407
lowerneck -4.69641 -2.29517 -2.05157
upperneck 23.7004 -0.315659 -20.5001
head 8.07019 -2.90069 -6.7933
rclavicle 1.32192e-014 -3.18055e-015
rhumerus -27.5612 22.6905 -95.6513
rradius 121.098
rwrist -83.8624
rhand -22.7007 2.0041
rfingers 7.12502
rthumb 3.7321 -27.943
lclavicle 1.32192e-014 -3.18055e-015
lhumerus -52.8672 -15.9762 92.43
lradius 39.5367
lwrist 23.9223
lhand -9.51232 3.46315
lfingers 7.12502
lthumb 16.4532 32.7854
rfemur -11.3167 15.959 13.9491
rtibia 34.5749
rfoot -18.2723 -1.80939
rtoes 0.000992572
lfemur 8.00377 9.5279 -15.2679
ltibia 15.04
lfoot -18.0682 10.4249
ltoes -2.52758
1794
root 6.93478 16.334 -0.800872 -186.555 -70.2996 181.939
lowerback 3.28457 -0.489474 3.54396
upperback -0.487996 -0.498619 2.55671
thorax -2.35139 -0.300277 0.668748
lowerneck -4.69297 -2.28596 -2.05189
upperneck 23.653 -0.307738 -20.522
head 8.05426 -2.89637 -6.79718
rclavicle -1.8487e-014 3.02153e-014
rhumerus -27.5689 22.6754 -95.6738
rradius 121.097
rwrist -83.8464
rhand -22.6934 2.00282
rfingers 7.12502
rthumb 3.73918 -27.9441
lclavicle -1.8487e-014 3.02153e-014
lhumerus -52.8643 -15.9981 92.4138
lradius 39.5146
lwrist 23.9191
lhand -9.47943 3.51105
lfingers 7.12502
lthumb 16.4849 32.8307
rfemur -11.3723 15.9842 13.9041
rtibia 34.5105
rfoot -18.1629 -1.69961
rtoes 0.0151171
lfemur 7.97933 9.71772 -15.2824
ltibia 15.1318
lfoot -18.1516 10.4442
ltoes -2.51434
